<svg width="67" height="97" viewBox="0 0 67 97" fill="none" xmlns="http://www.w3.org/2000/svg">
<g filter="url(#filter0_d_1_753)">
<path d="M54.0647 69.2054C57.8445 70.9282 58.2099 75.7755 58.8422 84.4639C58.8422 84.4639 60.692 73.5413 56.2127 69.872C55.6044 69.3737 54.1685 69.1102 54.0647 69.2054Z" fill="#EBEBEB"/>
<path d="M50.3228 53.7054C50.3228 53.7054 65.7295 61.2977 66.248 63.4828C66.7664 65.6678 58.8039 84.5929 58.8039 84.5929C58.8039 84.5929 60.556 69.6868 54.3596 69.3343C51.2331 69.1565 47.1007 72.7416 47.1007 72.7416L50.3228 53.7054Z" fill="white"/>
<path d="M12.2075 69.2054C8.42768 70.9282 8.06232 75.7755 7.42998 84.4639C7.42998 84.4639 5.58023 73.5413 10.0595 69.872C10.6678 69.3737 12.1037 69.1102 12.2075 69.2054Z" fill="#333030"/>
<path d="M15.9494 53.7054C15.9494 53.7054 0.542754 61.2977 0.0242651 63.4828C-0.494224 65.6678 7.46836 84.5929 7.46836 84.5929C7.46836 84.5929 5.71617 69.6868 11.9126 69.3343C15.0391 69.1565 19.1715 72.7416 19.1715 72.7416L15.9494 53.7054Z" fill="#EBEBEB"/>
<path d="M27.7201 82.8734C26.0721 85.352 33.144 95.8507 33.872 95.8507C34.6001 95.8507 40.6387 85.2927 39.4962 82.8734C38.3536 80.4541 29.3681 80.3948 27.7201 82.8734Z" fill="#FD6E4C"/>
<path d="M29.78 84.8234C28.7088 86.4345 33.3055 93.2587 33.7787 93.2587C34.252 93.2587 38.1771 86.396 37.4344 84.8234C36.6917 83.2509 30.8512 83.2124 29.78 84.8234Z" fill="#FFF38B"/>
<path fill-rule="evenodd" clip-rule="evenodd" d="M19.3153 73.478H33.4257H47.5362C47.5362 73.478 49.6456 63.7097 50.462 57.3677C51.5072 49.2473 51.7582 36.4427 51.7582 36.4427C51.4386 27.7777 50.7914 23.1166 47.4991 15.703C42.1743 6.25085 39.1193 2.30065 33.4257 0C27.7321 2.30065 24.6771 6.25085 19.3523 15.703C16.06 23.1166 15.4128 27.7777 15.0933 36.4427C15.0933 36.4427 15.3443 49.2473 16.3895 57.3677C17.2058 63.7097 19.3153 73.478 19.3153 73.478Z" fill="white"/>
<path d="M31.4507 3.35803C28.0757 5.54324 25.4721 9.17924 21.2739 16.6237C18.1638 23.6507 17.5424 28.0224 17.229 36.4723C17.2294 36.4923 17.2303 36.517 17.231 36.5455C17.233 36.6397 17.2363 36.7796 17.2407 36.9606C17.2495 37.323 17.2629 37.8511 17.2827 38.5104C17.3223 39.8294 17.3858 41.6725 17.4819 43.7672C17.6749 47.973 17.996 53.1348 18.5073 57.1071C18.9066 60.2093 19.6275 64.1831 20.2554 67.4098C20.5668 69.0105 20.853 70.4167 21.062 71.4244H31.4507L31.4507 3.35803Z" fill="#EBEBEB" stroke="white" stroke-width="4.11029"/>
<path d="M40.5881 30.0756C40.5881 33.9619 37.4376 37.1123 33.5514 37.1123C29.6651 37.1123 26.5146 33.9619 26.5146 30.0756C26.5146 26.1894 29.6651 23.0389 33.5514 23.0389C37.4376 23.0389 40.5881 26.1894 40.5881 30.0756Z" fill="#EBEBEB"/>
<path d="M39.479 30.0757C39.479 33.3483 36.826 36.0013 33.5533 36.0013C30.2807 36.0013 27.6277 33.3483 27.6277 30.0757C27.6277 26.803 30.2807 24.15 33.5533 24.15C36.826 24.15 39.479 26.803 39.479 30.0757Z" fill="#171821"/>
<path d="M33.4759 37.1123C31.6097 37.1123 29.8198 36.371 28.5002 35.0513C27.1806 33.7317 26.4392 31.9419 26.4392 30.0756C26.4392 28.2094 27.1806 26.4196 28.5002 25.0999C29.8198 23.7803 31.6097 23.0389 33.4759 23.0389V24.1815C31.9127 24.1815 30.4135 24.8025 29.3081 25.9079C28.2028 27.0132 27.5818 28.5124 27.5818 30.0756C27.5818 31.6389 28.2028 33.1381 29.3081 34.2434C30.4135 35.3488 31.9127 35.9698 33.4759 35.9698V37.1123Z" fill="white"/>
<path d="M33.5533 36.0013C31.9818 36.0013 30.4745 35.377 29.3633 34.2657C28.252 33.1545 27.6277 31.6472 27.6277 30.0757C27.6277 28.5041 28.252 26.9969 29.3633 25.8856C30.4745 24.7743 31.9818 24.15 33.5533 24.15V30.0757L33.5533 36.0013Z" fill="#171821"/>
<path fill-rule="evenodd" clip-rule="evenodd" d="M33.431 73.4817H19.3206C19.5088 74.6635 19.7242 75.2241 20.4687 75.889H33.431V73.4817ZM33.4317 73.4817H47.5421C47.3539 74.6635 47.1385 75.2241 46.394 75.889H33.4317V73.4817Z" fill="#252020"/>
<path d="M19.3228 73.4817H33.4332V75.889H20.4708C19.7264 75.2241 19.511 74.6635 19.3228 73.4817Z" fill="#333030"/>
</g>
<defs>
<filter id="filter0_d_1_753" x="0" y="0" width="66.2722" height="97.0095" filterUnits="userSpaceOnUse" color-interpolation-filters="sRGB">
<feFlood flood-opacity="0" result="BackgroundImageFix"/>
<feColorMatrix in="SourceAlpha" type="matrix" values="0 0 0 0 0 0 0 0 0 0 0 0 0 0 0 0 0 0 127 0" result="hardAlpha"/>
<feOffset dy="1.15883"/>
<feComposite in2="hardAlpha" operator="out"/>
<feColorMatrix type="matrix" values="0 0 0 0 0 0 0 0 0 0 0 0 0 0 0 0 0 0 0.25 0"/>
<feBlend mode="normal" in2="BackgroundImageFix" result="effect1_dropShadow_1_753"/>
<feBlend mode="normal" in="SourceGraphic" in2="effect1_dropShadow_1_753" result="shape"/>
</filter>
</defs>
</svg>
